<?xml version="1.0" encoding="UTF-8" standalone="no"?>
<!DOCTYPE svg PUBLIC "-//W3C//DTD SVG 1.1//EN" "http://www.w3.org/Graphics/SVG/1.1/DTD/svg11.dtd">
<svg version="1.1" xmlns="http://www.w3.org/2000/svg" xmlns:xlink="http://www.w3.org/1999/xlink" opacity="1" fill-opacity="0" stroke="currentColor" stroke-width="1.2" stroke-opacity="1" preserveAspectRatio="xMidYMid meet" viewBox="0 0 30 30" width="30" height="30">
    <path d="M24.4 4C24.6 4 24.79 4.04 24.97 4.1C25.22 4.2 25.44 4.35 25.61 4.55C25.85 4.83 26 5.2 26 5.6C26 9.68 26 20.64 26 24.4C26 25.29 25.29 26 24.4 26C20.32 26 9.68 26 5.6 26C4.71 26 4 25.29 4 24.4C4 20.32 4 9.68 4 5.6C4 4.71 4.71 4 5.6 4C4.53 4 10.8 4 24.4 4Z" id="i1gu0Ep3ja"/>
    <path d="M22.85 18.74L17 18.74" id="e2DPkAmRIU"/>
    <path d="M22.85 21.19L17 21.19" id="b2Ab5xzKK5"/>
    <path d="M18.07 13.13L18.07 8.35" id="a2RF1tj88g"/>
    <path d="M23.03 7.88L16.21 7.88" id="c1TLpxJZGV"/>
    <path d="M22.62 11.98L22.05 11.98L21.66 11.98L21.32 11.88L21.03 11.58L20.97 11.24L20.97 8.35" id="cdfzOq2dQ"/>
    <path d="M6.85 9.79L8.54 9.79L9.9 12.2L13.67 6.95" id="aGYZoeGSy"/>
    <path d="M12.69 21.35L11.53 21.78L10.51 21.81L9.73 21.65L9.09 21.35L8.54 20.82L8.32 20.17L8.34 19.07L8.34 18.59L8.44 18.18L8.64 17.73L8.99 17.35L9.62 17L10.11 16.87C10.2 16.86 10.26 16.85 10.29 16.85C10.51 16.82 10.74 16.84 10.95 16.91C10.97 16.91 11.01 16.93 11.09 16.95L11.53 17.14L11.87 17.35L12.11 17.56L12.3 17.77L12.51 18.11L12.65 18.35L12.65 19.07L11.39 19.07L8.89 19.07" id="b12OADY8un"/>
</svg>
