<?xml version="1.0" encoding="UTF-8" standalone="no" ?>
<!DOCTYPE svg PUBLIC "-//W3C//DTD SVG 1.1//EN" "http://www.w3.org/Graphics/SVG/1.1/DTD/svg11.dtd">
<svg version="1.1" xmlns="http://www.w3.org/2000/svg" xmlns:xlink="http://www.w3.org/1999/xlink" preserveAspectRatio="xMidYMid meet" viewBox="0 0 30 30" opacity="1" fill-opacity="0" stroke="currentColor" stroke-width="1" stroke-opacity="1">
  <path stroke="currentColor" d="M8.45 7.25L8.66 7.07L8.85 7L9.29 7C18.22 7 23.81 7 26.04 7C26.57 7 27 7.43 27 7.96C27 10.97 27 19.03 27 22.04C27 22.57 26.57 23 26.04 23C23.8 23 18.21 23 9.26 23L9 23L8.66 22.79L8.36 22.48C5.31 19 3.41 16.83 2.65 15.96C2.29 15.55 2.28 14.94 2.62 14.51C3.4 13.54 5.34 11.12 8.45 7.25Z" id="a2IaNee1WD"/>
  <path d="M18.85 12.5L13 17.94" id="deLP4i2gC"/>
  <path d="M18.85 17.94L13 12.5" id="a1ZjCt2w8"/>
</svg>
